# xmcd
#
# Track frame offsets:
#	150
#	18449
#	30661
#	46908
#	64789
#	83808
#	99670
#	114598
#	133155
#	147191
#	164012
#	186035
#	203761
#	220214
#	239197
#	252149
#	268340
#	281951
#	298122
#	316536
#	333416
#
# Disc length: 4631 seconds
#
# Revision: 1
# Processed by: cddbd v1.5.2PL0 Copyright (c) Steve Scherf et al.
# Submitted via: audiograbber 1.83.01
#
DISCID=48121515
DTITLE=Jill Johnson - The Well-Known
DYEAR=2010
DGENRE=Country
TTITLE0=No Surrender
TTITLE1=Why´d You Come In Here Looking Like That
TTITLE2=Stumble And Fade Away
TTITLE3=Angel Of The Morning
TTITLE4=Say Something
TTITLE5=Jolene
TTITLE6=Can´t Get enough Of You
TTITLE7=Hopelessly Devoted
TTITLE8=Someone To Flatter
TTITLE9=Cowboy Up
TTITLE10=Forever´s Going Underground
TTITLE11=It´s A Heartache
TTITLE12=Desperado
TTITLE13=Song To Heaven
TTITLE14=The Heat Is On
TTITLE15=Mothers Jewel
TTITLE16=Crazy In Love
TTITLE17=Top Of The World
TTITLE18=Lost Without Your Love
TTITLE19=Oh, Vilken Härlig Dag
TTITLE20=Kärleken Är
EXTD=
EXTT0=
EXTT1=
EXTT2=
EXTT3=
EXTT4=
EXTT5=
EXTT6=
EXTT7=
EXTT8=
EXTT9=
EXTT10=
EXTT11=
EXTT12=
EXTT13=
EXTT14=
EXTT15=
EXTT16=
EXTT17=
EXTT18=
EXTT19=
EXTT20=
PLAYORDER=
